<?xml version="1.0" encoding="UTF-8" standalone="no"?>
<!DOCTYPE svg PUBLIC "-//W3C//DTD SVG 1.1//EN" "http://www.w3.org/Graphics/SVG/1.1/DTD/svg11.dtd">
<svg version="1.1" xmlns="http://www.w3.org/2000/svg" xmlns:xlink="http://www.w3.org/1999/xlink" preserveAspectRatio="xMidYMid meet" viewBox="0 0 640 640" width="640" height="640"><defs><path d="M422.28 161.04C422.28 202.36 374.69 235.91 316.07 235.91C257.46 235.91 209.87 202.36 209.87 161.04C209.87 119.72 257.46 86.17 316.07 86.17C374.69 86.17 422.28 119.72 422.28 161.04Z" id="btR9ooSMM"></path><path d="M430.5 174.39C425.7 111.48 381.48 70.17 317.01 70.17C248.82 70.17 203 116.18 203 185.19C203 255.14 252.55 336.83 317.01 336.83C380.95 336.83 431.03 255.14 431.03 185.19C431.03 181.9 431.03 178.61 430.5 175.33C430.5 174.86 430.5 174.86 430.5 174.39ZM399.59 185.19C399.59 132.14 367.09 97.87 317.01 97.87C314.35 97.87 311.69 95.99 311.69 93.17C311.69 90.82 313.82 88.48 317.01 88.48C373.49 88.48 410.25 126.5 410.25 185.19C410.25 187.53 408.12 189.88 404.92 189.88C402.26 189.88 399.59 188 399.59 185.19Z" id="c1JSagHvmT"></path><path d="M287.65 360.3L340.99 360.3L314.32 327.94L287.65 360.3Z" id="g8iXt4cH2w"></path><path d="M346.36 410.13C346.36 393.7 338.9 377.74 323.45 361.78C322.06 361.78 310.98 361.78 309.6 361.78C327.18 377.74 335.7 394.17 335.7 410.13C335.7 427.5 325.58 440.18 314.39 453.8C303.2 467.41 291.48 481.96 288.29 503.09C284.56 529.38 297.34 558.02 325.05 588.06C326.11 589 327.71 589.94 328.78 589.94C329.84 589.94 330.91 589.47 331.97 589C334.1 587.59 334.64 584.31 332.51 582.43C306.4 554.73 294.68 528.44 297.88 504.5C302.14 485.25 313.33 472.1 323.45 458.96C334.64 444.88 346.89 430.32 346.36 410.13Z" id="c3JvVkdVhJ"></path><path d="M325.38 141.92C326.97 143.33 326.97 145.81 325.38 147.22C316.55 155 293.06 175.69 284.24 183.47C282.52 184.98 279.95 184.98 278.23 183.47C276.43 181.88 274.03 179.76 272.22 178.18C270.63 176.77 270.63 174.29 272.22 172.88C281.05 165.1 304.53 144.41 313.36 136.63C315.08 135.12 317.65 135.12 319.37 136.63C321.17 138.22 323.57 140.34 325.38 141.92Z" id="b2YC7Iz6VR"></path><path d="M358.78 168.5C360.37 169.9 360.37 172.39 358.78 173.79C349.95 181.57 326.46 202.26 317.64 210.04C315.92 211.55 313.35 211.55 311.63 210.04C309.83 208.45 307.43 206.34 305.62 204.75C304.03 203.34 304.03 200.86 305.62 199.46C314.45 191.68 337.93 170.99 346.76 163.21C348.48 161.69 351.05 161.69 352.77 163.21C354.57 164.79 356.97 166.91 358.78 168.5Z" id="ehrgsQMM8"></path></defs><g><g><g><g><use xlink:href="#btR9ooSMM" opacity="1" fill="#ffffff" fill-opacity="1"></use><g><use xlink:href="#btR9ooSMM" opacity="1" fill-opacity="0" stroke="#000000" stroke-width="1" stroke-opacity="1"></use></g></g><g><g><use xlink:href="#c1JSagHvmT" opacity="1" fill="#73648a" fill-opacity="1"></use><g><use xlink:href="#c1JSagHvmT" opacity="1" fill-opacity="0" stroke="#000000" stroke-width="1" stroke-opacity="0"></use></g></g><g><use xlink:href="#g8iXt4cH2w" opacity="1" fill="#73648a" fill-opacity="1"></use><g><use xlink:href="#g8iXt4cH2w" opacity="1" fill-opacity="0" stroke="#000000" stroke-width="1" stroke-opacity="0"></use></g></g><g><use xlink:href="#c3JvVkdVhJ" opacity="1" fill="#73648a" fill-opacity="1"></use><g><use xlink:href="#c3JvVkdVhJ" opacity="1" fill-opacity="0" stroke="#000000" stroke-width="1" stroke-opacity="0"></use></g></g><g><use xlink:href="#b2YC7Iz6VR" opacity="1" fill="#ffffff" fill-opacity="1"></use></g><g><use xlink:href="#ehrgsQMM8" opacity="1" fill="#ffffff" fill-opacity="1"></use></g></g></g></g></g></svg>
